# xmcd
#
# Track frame offsets: 
#        150
#        14040
#        27585
#        41760
#        54392
#        67975
#        81387
#        96792
#        111345
#        123240
#        135257
#        147855
#        160432
#        173552
#        186032
#        199077
#        210922
#        222052
#        233437
#        244835
#        255957
#        267137
#        278115
#
# Disc length: 3857 seconds
#
# Revision: 0
# Processed by: cddbd v1.5.2PL0 Copyright (c) Steve Scherf et al.
# Submitted via: ExactAudioCopy v1.0b3
#
DISCID=3e0f0f17
DTITLE=Peetie Wheatstraw - Complete Recorded Works In Chronological Or
DTITLE=der Vol. 7 1940-1941
DYEAR=1994
DGENRE=Blues
TTITLE0=Jaybird Blues
TTITLE1=Suicide Blues
TTITLE2=Pocket Knife Blues
TTITLE3=Gangster's Blues
TTITLE4=Cuttin' 'Em Slow
TTITLE5=Look Out For Yourself
TTITLE6=No 'Count Woman
TTITLE7=What's That?
TTITLE8=I Don't Feel Sleepy
TTITLE9=My Little Bit
TTITLE10=Seeing Is Believing
TTITLE11=The Good Lawd's Children
TTITLE12=You Got To Tell Me Something
TTITLE13=Love Me With Attention
TTITLE14=I'm A Little Piece Of Leather
TTITLE15=Don't Put Yourself On The Spot
TTITLE16=Old Organ Blues
TTITLE17=Hearse Man Blues
TTITLE18=Bring Me Flowers While I'm Living
TTITLE19=Pawn Broker Blues
TTITLE20=Southern Girl Blues
TTITLE21=Mister Livingood
TTITLE22=Separation Day Blues
EXTD=
EXTT0=
EXTT1=
EXTT2=
EXTT3=
EXTT4=
EXTT5=
EXTT6=
EXTT7=
EXTT8=
EXTT9=
EXTT10=
EXTT11=
EXTT12=
EXTT13=
EXTT14=
EXTT15=
EXTT16=
EXTT17=
EXTT18=
EXTT19=
EXTT20=
EXTT21=
EXTT22=
PLAYORDER=
